<svg xmlns="http://www.w3.org/2000/svg" viewBox="0 0 320 72" width="320" height="72">
  <!-- Hanger icon -->
  <g transform="translate(8, 4)">
    <!-- Hook -->
    <path d="M32 6 C32 3 34 1 37 1 C40 1 42 3 42 6 C42 9 40 11 37 11"
          fill="none" stroke="#e8881e" stroke-width="2.5" stroke-linecap="round"/>
    <!-- Hanger body -->
    <path d="M37 11 L37 20 M37 20 L10 44 C6 46 4 50 6 53 C8 56 12 56 15 54 L37 42 L59 54 C62 56 66 56 68 53 C70 50 68 46 64 44 Z"
          fill="none" stroke="#e8881e" stroke-width="2.5" stroke-linecap="round" stroke-linejoin="round"/>
    <!-- Filled hanger shape -->
    <path d="M37 20 L10 44 C6 46 4 50 6 53 C8 56 12 56 15 54 L37 42 L59 54 C62 56 66 56 68 53 C70 50 68 46 64 44 Z"
          fill="#e8881e" opacity="0.15"/>
  </g>
  <!-- Text -->
  <g transform="translate(92, 0)" font-family="'Inter', -apple-system, sans-serif">
    <text x="0" y="28"
          font-size="11" font-weight="600"
          letter-spacing="3"
          fill="#e8881e"
          text-anchor="start">BLESSINGTON STREET</text>
    <text x="0" y="54"
          font-size="26" font-weight="700"
          letter-spacing="1.5"
          fill="#f0ece4"
          text-anchor="start">LAUNDERETTE</text>
  </g>
</svg>
